<svg width="199" height="169" viewBox="0 0 199 169" fill="none" xmlns="http://www.w3.org/2000/svg">
<path d="M148.703 56.3335C148.703 56.3335 162.339 76.047 173.745 76.047C185.151 76.047 198.786 56.3335 198.786 56.3335V112.667C198.786 112.667 184.906 92.9481 173.745 92.9481C162.583 92.9481 148.703 112.667 148.703 112.667V56.3335Z" fill="#F20000"/>
<mask id="mask0_2063_374" style="mask-type:luminance" maskUnits="userSpaceOnUse" x="0" y="0" width="170" height="169">
<path d="M0 0H170V169H0V0Z" fill="white"/>
</mask>
<g mask="url(#mask0_2063_374)">
<path d="M169.01 84.5C169.01 85.8802 168.974 87.2656 168.906 88.6458C168.839 90.026 168.734 91.4063 168.599 92.7813C168.464 94.1563 168.297 95.5313 168.094 96.8958C167.891 98.2656 167.656 99.625 167.385 100.984C167.115 102.339 166.812 103.688 166.474 105.031C166.141 106.37 165.771 107.703 165.37 109.026C164.969 110.349 164.536 111.661 164.068 112.964C163.604 114.266 163.104 115.557 162.578 116.833C162.047 118.115 161.484 119.375 160.896 120.625C160.302 121.875 159.682 123.109 159.031 124.333C158.38 125.552 157.698 126.755 156.984 127.938C156.276 129.125 155.536 130.292 154.766 131.443C154 132.594 153.203 133.724 152.38 134.833C151.557 135.948 150.703 137.036 149.828 138.104C148.948 139.172 148.047 140.219 147.12 141.245C146.187 142.271 145.234 143.271 144.26 144.25C143.281 145.224 142.281 146.182 141.255 147.109C140.229 148.036 139.182 148.943 138.115 149.818C137.047 150.693 135.953 151.547 134.844 152.37C133.734 153.193 132.604 153.99 131.453 154.755C130.302 155.526 129.135 156.266 127.948 156.974C126.766 157.688 125.562 158.37 124.344 159.021C123.12 159.672 121.885 160.292 120.635 160.885C119.385 161.474 118.125 162.036 116.844 162.568C115.568 163.094 114.276 163.594 112.974 164.057C111.672 164.526 110.359 164.958 109.036 165.359C107.714 165.76 106.38 166.13 105.042 166.464C103.698 166.802 102.349 167.104 100.995 167.375C99.6354 167.646 98.276 167.88 96.9062 168.083C95.5416 168.286 94.1666 168.453 92.7916 168.594C91.4166 168.729 90.0364 168.828 88.6562 168.896C87.2708 168.964 85.8906 169 84.5104 169C83.125 169 81.7448 168.964 80.3645 168.896C78.9791 168.828 77.6041 168.729 76.2239 168.594C74.8489 168.453 73.4791 168.286 72.1093 168.083C70.7395 167.88 69.3802 167.646 68.0208 167.375C66.6666 167.104 65.3177 166.802 63.9739 166.464C62.6354 166.13 61.302 165.76 59.9791 165.359C58.6562 164.958 57.3437 164.526 56.0416 164.057C54.7395 163.594 53.4479 163.094 52.1718 162.568C50.8958 162.036 49.6302 161.474 48.3802 160.885C47.1302 160.292 45.8958 159.672 44.677 159.021C43.4531 158.37 42.2552 157.688 41.0677 156.974C39.8802 156.266 38.7135 155.526 37.5625 154.755C36.4114 153.99 35.2812 153.193 34.1718 152.37C33.0625 151.547 31.9687 150.693 30.901 149.818C29.8333 148.943 28.7864 148.036 27.7604 147.109C26.7343 146.182 25.7343 145.224 24.7552 144.25C23.7812 143.271 22.8281 142.271 21.8958 141.245C20.9687 140.219 20.0677 139.172 19.1875 138.104C18.3125 137.036 17.4635 135.948 16.6354 134.833C15.8125 133.724 15.0156 132.594 14.25 131.443C13.4791 130.292 12.7395 129.125 12.0312 127.938C11.3177 126.755 10.6354 125.552 9.98433 124.333C9.33329 123.109 8.7135 121.875 8.11975 120.625C7.53121 119.375 6.96871 118.115 6.44267 116.833C5.91142 115.557 5.41142 114.266 4.94788 112.964C4.48433 111.661 4.04683 110.349 3.64579 109.026C3.24475 107.703 2.87496 106.37 2.54163 105.031C2.20308 103.688 1.901 102.339 1.63017 100.984C1.36454 99.625 1.12496 98.2656 0.921834 96.8958C0.718709 95.5313 0.552042 94.1563 0.416626 92.7813C0.28121 91.4063 0.177042 90.026 0.109334 88.6458C0.0416263 87.2656 0.010376 85.8802 0.010376 84.5C0.010376 83.1146 0.0416263 81.7344 0.109334 80.3542C0.177042 78.9688 0.28121 77.5938 0.416626 76.2135C0.552042 74.8385 0.718709 73.4688 0.921834 72.099C1.12496 70.7292 1.36454 69.3698 1.63017 68.0104C1.901 66.6563 2.20308 65.3073 2.54163 63.9688C2.87496 62.625 3.24475 61.2917 3.64579 59.9688C4.04683 58.6458 4.48433 57.3333 4.94788 56.0313C5.41142 54.7292 5.91142 53.4375 6.44267 52.1615C6.96871 50.8854 7.53121 49.6198 8.11975 48.3698C8.7135 47.1198 9.33329 45.8854 9.98433 44.6667C10.6354 43.4479 11.3177 42.2448 12.0312 41.0573C12.7395 39.8698 13.4791 38.7031 14.25 37.5521C15.0156 36.401 15.8125 35.2708 16.6354 34.1615C17.4635 33.0521 18.3125 31.9583 19.1875 30.8906C20.0677 29.8229 20.9687 28.776 21.8958 27.75C22.8281 26.7292 23.7812 25.724 24.7552 24.75C25.7343 23.7708 26.7343 22.8177 27.7604 21.8854C28.7864 20.9583 29.8333 20.0573 30.901 19.1771C31.9687 18.3021 33.0625 17.4531 34.1718 16.625C35.2812 15.8021 36.4114 15.0052 37.5625 14.2396C38.7135 13.4688 39.8802 12.7292 41.0677 12.0208C42.2552 11.3073 43.4531 10.6302 44.677 9.97396C45.8958 9.32292 47.1302 8.70313 48.3802 8.10938C49.6302 7.52083 50.8958 6.95833 52.1718 6.43229C53.4479 5.90104 54.7395 5.40104 56.0416 4.9375C57.3437 4.47396 58.6562 4.03646 59.9791 3.63542C61.302 3.23438 62.6354 2.86458 63.9739 2.53125C65.3177 2.19271 66.6666 1.89062 68.0208 1.61979C69.3802 1.35417 70.7395 1.11458 72.1093 0.911458C73.4791 0.708333 74.8489 0.541667 76.2239 0.40625C77.6041 0.270834 78.9791 0.166668 80.3645 0.0989583C81.7448 0.0312503 83.125 0 84.5104 0C85.8906 0 87.2708 0.0312503 88.6562 0.0989583C90.0364 0.166668 91.4166 0.270834 92.7916 0.40625C94.1666 0.541667 95.5416 0.708333 96.9062 0.911458C98.276 1.11458 99.6354 1.35417 100.995 1.61979C102.349 1.89062 103.698 2.19271 105.042 2.53125C106.38 2.86458 107.714 3.23438 109.036 3.63542C110.359 4.03646 111.672 4.47396 112.974 4.9375C114.276 5.40104 115.568 5.90104 116.844 6.43229C118.125 6.95833 119.385 7.52083 120.635 8.10938C121.885 8.70313 123.12 9.32292 124.344 9.97396C125.562 10.6302 126.766 11.3073 127.948 12.0208C129.135 12.7292 130.302 13.4688 131.453 14.2396C132.604 15.0052 133.734 15.8021 134.844 16.625C135.953 17.4531 137.047 18.3021 138.115 19.1771C139.182 20.0573 140.229 20.9583 141.255 21.8854C142.281 22.8177 143.281 23.7708 144.26 24.75C145.234 25.724 146.187 26.7292 147.12 27.75C148.047 28.776 148.948 29.8229 149.828 30.8906C150.703 31.9583 151.557 33.0521 152.38 34.1615C153.203 35.2708 154 36.401 154.766 37.5521C155.536 38.7031 156.276 39.8698 156.984 41.0573C157.698 42.2448 158.38 43.4479 159.031 44.6667C159.682 45.8854 160.302 47.1198 160.896 48.3698C161.484 49.6198 162.047 50.8854 162.578 52.1615C163.104 53.4375 163.604 54.7292 164.068 56.0313C164.536 57.3333 164.969 58.6458 165.37 59.9688C165.771 61.2917 166.141 62.625 166.474 63.9688C166.812 65.3073 167.115 66.6563 167.385 68.0156C167.656 69.3698 167.891 70.7292 168.094 72.099C168.297 73.4688 168.464 74.8385 168.599 76.2135C168.734 77.5938 168.839 78.9688 168.906 80.3542C168.974 81.7344 169.01 83.1146 169.01 84.5Z" fill="#F20000"/>
</g>
<path d="M56.3438 115.479L111.875 58.1198M111.875 58.1198L87.0677 53.5156M111.875 58.1198V86.0208" stroke="#030303" stroke-width="6.69803" stroke-linecap="round"/>
</svg>
