<svg width="1440" height="347" viewBox="0 0 1440 347" fill="none" xmlns="http://www.w3.org/2000/svg">
<g clip-path="url(#clip0_2067_1439)">
<g opacity="0.3" filter="url(#filter0_f_2067_1439)">
<path d="M1177.24 190.5H1101.35L1072.38 343.559H1177.24C1215.01 343.558 1245.62 312.94 1245.62 275.17V258.889C1245.62 221.119 1215.01 190.5 1177.24 190.5Z" stroke="#FF0000"/>
<path d="M819.977 190.5H744.09L715.125 343.559H819.977C857.746 343.558 888.365 312.94 888.365 275.17V258.889C888.365 221.119 857.747 190.5 819.977 190.5Z" stroke="#FF0000"/>
<path d="M462.715 190.5H386.828L357.863 343.559H462.715C500.485 343.558 531.103 312.94 531.104 275.17V258.889C531.103 221.119 500.485 190.5 462.715 190.5Z" stroke="#FF0000"/>
<path d="M105.455 190.5H29.5684L0.603516 343.559H105.455C143.225 343.558 173.844 312.94 173.844 275.17V258.889C173.844 221.119 143.225 190.5 105.455 190.5Z" stroke="#FF0000"/>
<path d="M977.285 343.559H1053.17L1082.14 190.5H977.285C939.515 190.5 908.897 221.119 908.896 258.889V275.17C908.897 312.94 939.515 343.558 977.285 343.559Z" stroke="#FF0000"/>
<path d="M1334.54 343.559H1410.43L1439.4 190.5H1334.54C1296.78 190.5 1266.16 221.119 1266.16 258.889V275.17C1266.16 312.94 1296.77 343.558 1334.54 343.559Z" stroke="#FF0000"/>
<path d="M620.023 343.559H695.91L724.875 190.5H620.023C582.254 190.5 551.635 221.119 551.635 258.889V275.17C551.635 312.94 582.253 343.558 620.023 343.559Z" stroke="#FF0000"/>
<path d="M262.764 343.559H338.65L367.615 190.5H262.764C224.994 190.5 194.375 221.119 194.375 258.889V275.17C194.375 312.94 224.994 343.558 262.764 343.559Z" stroke="#FF0000"/>
<path d="M1308.4 2.50001L1232.52 2.5L1203.55 155.559H1308.4C1346.17 155.558 1376.79 124.94 1376.79 87.1699V70.8887C1376.79 33.1187 1346.17 2.50012 1308.4 2.50001Z" stroke="#FF0000"/>
<path d="M236.623 2.50001L160.736 2.5L131.771 155.559H236.623C274.393 155.558 305.011 124.94 305.012 87.1699V70.8887C305.012 33.1187 274.393 2.50012 236.623 2.50001Z" stroke="#FF0000"/>
<path d="M951.145 2.50001L875.258 2.5L846.293 155.559H951.145C988.914 155.558 1019.53 124.94 1019.53 87.1699V70.8887C1019.53 33.1187 988.915 2.50012 951.145 2.50001Z" stroke="#FF0000"/>
<path d="M593.883 2.50001L517.996 2.5L489.031 155.559H593.883C631.653 155.558 662.271 124.94 662.271 87.1699V70.8887C662.271 33.1187 631.653 2.50012 593.883 2.50001Z" stroke="#FF0000"/>
<path d="M1108.45 155.559H1184.34L1213.3 2.50002L1108.45 2.5C1070.68 2.50012 1040.06 33.1188 1040.06 70.8887V87.1699C1040.06 124.94 1070.68 155.558 1108.45 155.559Z" stroke="#FF0000"/>
<path d="M751.191 155.559H827.078L856.043 2.50002L751.191 2.5C713.422 2.50012 682.803 33.1188 682.803 70.8887V87.1699C682.803 124.94 713.421 155.558 751.191 155.559Z" stroke="#FF0000"/>
<path d="M393.932 155.559H469.818L498.783 2.50002L393.932 2.5C356.162 2.50012 325.543 33.1188 325.543 70.8887V87.1699C325.543 124.94 356.162 155.558 393.932 155.559Z" stroke="#FF0000"/>
</g>
</g>
<defs>
<filter id="filter0_f_2067_1439" x="-2" y="0" width="1444" height="346.059" filterUnits="userSpaceOnUse" color-interpolation-filters="sRGB">
<feFlood flood-opacity="0" result="BackgroundImageFix"/>
<feBlend mode="normal" in="SourceGraphic" in2="BackgroundImageFix" result="shape"/>
<feGaussianBlur stdDeviation="1" result="effect1_foregroundBlur_2067_1439"/>
</filter>
<clipPath id="clip0_2067_1439">
<rect width="1440" height="347" fill="white"/>
</clipPath>
</defs>
</svg>
